<?xml version="1.0" encoding="UTF-8"?>
<svg width="800px" height="800px" viewBox="0 0 800 800" version="1.1" xmlns="http://www.w3.org/2000/svg">
    <defs>
        <linearGradient id="woodGradient" x1="0%" y1="0%" x2="100%" y2="100%">
            <stop offset="0%" style="stop-color:#8B4513;stop-opacity:1" />
            <stop offset="100%" style="stop-color:#654321;stop-opacity:1" />
        </linearGradient>
        <filter id="glow">
            <feGaussianBlur stdDeviation="3" result="coloredBlur"/>
            <feMerge>
                <feMergeNode in="coloredBlur"/>
                <feMergeNode in="SourceGraphic"/>
            </feMerge>
        </filter>
    </defs>
    
    <!-- Corps du violon -->
    <path d="M400,150 C500,150 550,250 550,350 C550,450 500,650 400,650 C300,650 250,450 250,350 C250,250 300,150 400,150" 
          fill="url(#woodGradient)" 
          stroke="#5D4037" 
          stroke-width="5"/>
    
    <!-- Manche -->
    <rect x="380" y="50" width="40" height="150" 
          fill="url(#woodGradient)" 
          stroke="#5D4037" 
          stroke-width="3"/>
    
    <!-- Tête -->
    <path d="M380,50 C380,30 420,30 420,50 L420,20 C420,10 380,10 380,20 Z" 
          fill="url(#woodGradient)" 
          stroke="#5D4037" 
          stroke-width="3"/>
    
    <!-- Chevilles -->
    <circle cx="385" cy="30" r="5" fill="#4A3728"/>
    <circle cx="415" cy="30" r="5" fill="#4A3728"/>
    
    <!-- Cordier -->
    <path d="M380,600 L420,600 L410,650 L390,650 Z" 
          fill="#2E1810" 
          stroke="#1A0F0A" 
          stroke-width="2"/>
    
    <!-- Cordes -->
    <line x1="390" y1="50" x2="390" y2="600" stroke="#FFD700" stroke-width="1" filter="url(#glow)"/>
    <line x1="400" y1="50" x2="400" y2="600" stroke="#FFD700" stroke-width="1" filter="url(#glow)"/>
    <line x1="410" y1="50" x2="410" y2="600" stroke="#FFD700" stroke-width="1" filter="url(#glow)"/>
    
    <!-- Chevalet -->
    <path d="M385,400 L415,400 L410,420 L390,420 Z" 
          fill="#2E1810" 
          stroke="#1A0F0A" 
          stroke-width="2"/>
    
    <!-- Ouïes -->
    <path d="M350,380 C360,360 370,360 380,380 C370,400 360,400 350,380" 
          fill="#1A0F0A"/>
    <path d="M420,380 C430,360 440,360 450,380 C440,400 430,400 420,380" 
          fill="#1A0F0A"/>
    
    <!-- Détails décoratifs -->
    <path d="M400,200 C450,200 480,250 480,300 C480,350 450,400 400,400 C350,400 320,350 320,300 C320,250 350,200 400,200" 
          fill="none" 
          stroke="#8B4513" 
          stroke-width="2"/>
    <path d="M400,450 C450,450 480,500 480,550 C480,600 450,650 400,650 C350,650 320,600 320,550 C320,500 350,450 400,450" 
          fill="none" 
          stroke="#8B4513" 
          stroke-width="2"/>
</svg> 